<svg id="Layer_1" data-name="Layer 1" xmlns="http://www.w3.org/2000/svg" viewBox="0 0 171.67 30"><defs><style>.cls-1{fill:#a7a9ac;}.cls-2{fill:#fff;}</style></defs><title>YapiKredi_Logo</title><path class="cls-1" d="M57.76,9.64C54.58.53,45.5,0,44.57,0a16.69,16.69,0,0,0-12,4.67,21.31,21.31,0,0,0-3.39,4.21h0a21.25,21.25,0,0,0-3.38-4.21A16.71,16.71,0,0,0,13.87,0C12.94,0,3.86.53.69,9.64A13.83,13.83,0,0,0,1.5,20.23c1.67,3.58,5.67,6.5,9.88,6.21A8.65,8.65,0,0,0,19,21.29a7.45,7.45,0,0,0-1.67-8.21,3,3,0,0,1-.52,2.25,3.32,3.32,0,0,1-4.06,1.09,2.7,2.7,0,0,1-1.77-3A3.15,3.15,0,0,1,13,11c1.85-.8,3.55-.39,5.21,1.19,2.72,3,3,7.65,4.33,11.15.92,2.88,2.37,5.38,5.54,6.1a5.19,5.19,0,0,0,1.18.13h0a5.1,5.1,0,0,0,1.18-.13c3.18-.72,4.63-3.22,5.54-6.1,1.29-3.5,1.61-8.11,4.34-11.15,1.66-1.59,3.36-2,5.2-1.19a3.15,3.15,0,0,1,1.95,2.42,2.69,2.69,0,0,1-1.77,3,3.32,3.32,0,0,1-4.06-1.09,3,3,0,0,1-.52-2.25,7.48,7.48,0,0,0-1.67,8.21,8.65,8.65,0,0,0,7.64,5.15c4.21.3,8.21-2.63,9.88-6.21A13.84,13.84,0,0,0,57.76,9.64ZM51.35,20.51a6.2,6.2,0,0,1-6.58,1.25,4.47,4.47,0,0,1-2.44-2.82c1.75,1.74,4.91,2.63,7.81-.42,0,0,2.71-2.51,1.17-7.25-.77-2.34-3.63-4.29-6-4.53A9.11,9.11,0,0,0,36,10.63C33.3,14.87,33,19.58,31,24.29a1.75,1.75,0,0,1-1.75,1.08h0a1.75,1.75,0,0,1-1.75-1.08c-2-4.71-2.33-9.42-5.07-13.66a9.11,9.11,0,0,0-9.24-3.9c-2.38.24-5.25,2.19-6,4.53C5.59,16,8.3,18.52,8.3,18.52c2.9,3.05,6.06,2.16,7.82.42a4.5,4.5,0,0,1-2.45,2.82,6.2,6.2,0,0,1-6.58-1.25,9.13,9.13,0,0,1-2.15-9.78c1.36-4.05,5.46-6.08,8.72-6.34,3.86-.34,9.18,2,11.31,6.06.49.93,1.54,3.34,1.54,3.34h5.41s1-2.41,1.54-3.34c2.12-4,7.45-6.4,11.31-6.06,3.26.26,7.36,2.29,8.72,6.34A9.11,9.11,0,0,1,51.35,20.51Z"/><rect class="cls-2" x="166.78" y="0.68" width="4.9" height="3.96"/><path class="cls-2" d="M70,14.75V25.48H64.5V14.75L59.64.69h5.88l1.75,6.9L69.05.69h5.88Z"/><path class="cls-2" d="M80.92,25.48l-.22-.94A4.35,4.35,0,0,1,77,26c-2,0-3.5-1.83-3.45-4.09l0-3.19c.09-5.2,7.15-3.62,7.15-7.5,0-.81,0-1.49-1-1.49s-1.15.68-1.15,1.49v1.58h-5V11.17c0-3.37,2.89-4.94,6.17-4.94,4.18,0,6.1,2.34,6.1,4.9V25.48ZM80.66,16c-1.19.77-2,1.15-2,2.72v2.3c0,1.1.3,1.53,1,1.53s1-.43,1-1.53Z"/><path class="cls-2" d="M100.59,20.42c0,3-.51,5.49-3.83,5.49a3.89,3.89,0,0,1-3.62-1.7V30H88.24V6.66h4.89l0,1.92A3.83,3.83,0,0,1,97,6.27c2.68,0,3.57,2.55,3.57,5v9.16Zm-5.24-8.78c0-.85-.47-1.32-1.1-1.32s-1.15.51-1.15,1.41v8.9c0,.85.46,1.32,1.1,1.32s1.15-.47,1.15-1.36Z"/><path class="cls-2" d="M102.94,25.48V6.7h4.89V25.48Z"/><path class="cls-2" d="M119.85,25.45l-3.2-8.69-.76,1.36v7.33h-5.54V.66h5.54V8.37L119.42.66h5.5L119.85,11.1l5.5,14.36Z"/><path class="cls-2" d="M136.11,11.81c-1.24-.47-4.51-.51-4.51,2.51V25.48h-4.91V6.7h4.56l0,2a5.19,5.19,0,0,1,4.86-2.47v5.58Z"/><path class="cls-2" d="M149.89,20.75c0,3.75-2.6,5.2-6.13,5.2-3.24,0-6.14-1.58-6.14-5.28V11.89c0-3.58,2.18-5.58,6.14-5.58,3.24,0,6.13,1.32,6.13,5.63v4.94h-7.2v4.51c0,.76.34,1.19,1.07,1.19s1.07-.43,1.07-1.19V18.63h5.07v2.12Zm-5.15-9.88c0-.76-.34-1.19-1-1.19s-1.07.42-1.07,1.19v2.56h2.13Z"/><path class="cls-2" d="M159.54,25.48V23.57c-.46,1.66-2,2.3-3.83,2.3-3,0-3.62-2.56-3.62-4.94V11.81c0-3,.72-5.58,3.75-5.58a4.34,4.34,0,0,1,3.7,1.7V.69h4.9V25.48Zm0-14c0-.85-.46-1.32-1.14-1.28s-1.15.47-1.15,1.32l0,8.94c0,.86.47,1.32,1.11,1.32s1.14-.51,1.14-1.36Z"/><path class="cls-2" d="M166.78,25.51V6.73h4.9V25.51Z"/></svg>